<svg width="134" height="137" viewBox="0 0 134 137" fill="none" xmlns="http://www.w3.org/2000/svg">
<rect x="19" width="95" height="95" rx="18" fill="url(#paint0_linear)"/>
<path d="M100.003 58.3674H98.2358V46.4544C98.2358 45.0548 97.6725 43.7104 96.6786 42.7185L85.6461 31.7092C84.6522 30.7173 83.3049 30.1553 81.9023 30.1553H77.0321V24.8655C77.0321 21.9451 74.6577 19.5758 71.7312 19.5758H36.3918C33.4653 19.5758 31.0909 21.9451 31.0909 24.8655V60.1307C31.0909 63.0511 33.4653 65.4205 36.3918 65.4205H38.1588C38.1588 71.2612 42.9075 76 48.7606 76C54.6137 76 59.3624 71.2612 59.3624 65.4205H73.4982C73.4982 71.2612 78.2469 76 84.1 76C89.9531 76 94.7018 71.2612 94.7018 65.4205H100.003C100.975 65.4205 101.77 64.627 101.77 63.6572V60.1307C101.77 59.1609 100.975 58.3674 100.003 58.3674ZM48.7606 70.7102C45.8341 70.7102 43.4597 68.3409 43.4597 65.4205C43.4597 62.5001 45.8341 60.1307 48.7606 60.1307C51.6871 60.1307 54.0615 62.5001 54.0615 65.4205C54.0615 68.3409 51.6871 70.7102 48.7606 70.7102ZM84.1 70.7102C81.1735 70.7102 78.7991 68.3409 78.7991 65.4205C78.7991 62.5001 81.1735 60.1307 84.1 60.1307C87.0265 60.1307 89.4009 62.5001 89.4009 65.4205C89.4009 68.3409 87.0265 70.7102 84.1 70.7102ZM92.9348 47.7879H77.0321V35.4451H81.9023L92.9348 46.4544V47.7879Z" fill="url(#paint1_linear)"/>
<path d="M50.2083 46.2288C50.1099 46.2288 50.0155 46.2679 49.9458 46.3375C49.8762 46.4071 49.8371 46.5016 49.8371 46.6V47.3424C49.8371 47.4409 49.8762 47.5353 49.9458 47.6049C50.0155 47.6745 50.1099 47.7136 50.2083 47.7136C50.3068 47.7136 50.4012 47.6745 50.4708 47.6049C50.5404 47.5353 50.5795 47.4409 50.5795 47.3424V46.6C50.5795 46.5016 50.5404 46.4071 50.4708 46.3375C50.4012 46.2679 50.3068 46.2288 50.2083 46.2288Z" fill="#43A047"/>
<path d="M50.2083 38.0621C50.1099 38.0621 50.0155 38.1012 49.9458 38.1709C49.8762 38.2405 49.8371 38.3349 49.8371 38.4333V44.744C49.8371 44.8424 49.8762 44.9368 49.9458 45.0064C50.0155 45.0761 50.1099 45.1152 50.2083 45.1152C50.3068 45.1152 50.4012 45.0761 50.4708 45.0064C50.5404 44.9368 50.5795 44.8424 50.5795 44.744V38.4333C50.5795 38.3349 50.5404 38.2405 50.4708 38.1709C50.4012 38.1012 50.3068 38.0621 50.2083 38.0621Z" fill="#43A047"/>
<path d="M54.6629 38.0621C54.5644 38.0621 54.47 38.1012 54.4004 38.1709C54.3308 38.2405 54.2917 38.3349 54.2917 38.4333V47.3424C54.2917 47.4409 54.3308 47.5353 54.4004 47.6049C54.47 47.6745 54.5644 47.7136 54.6629 47.7136C54.7613 47.7136 54.8557 47.6745 54.9254 47.6049C54.995 47.5353 55.0341 47.4409 55.0341 47.3424V38.4333C55.0341 38.3349 54.995 38.2405 54.9254 38.1709C54.8557 38.1012 54.7613 38.0621 54.6629 38.0621Z" fill="#43A047"/>
<path d="M59.1174 38.0621C59.019 38.0621 58.9246 38.1012 58.8549 38.1709C58.7853 38.2405 58.7462 38.3349 58.7462 38.4333V47.3424C58.7462 47.4409 58.7853 47.5353 58.8549 47.6049C58.9246 47.6745 59.019 47.7136 59.1174 47.7136C59.2159 47.7136 59.3103 47.6745 59.3799 47.6049C59.4495 47.5353 59.4886 47.4409 59.4886 47.3424V38.4333C59.4886 38.3349 59.4495 38.2405 59.3799 38.1709C59.3103 38.1012 59.2159 38.0621 59.1174 38.0621Z" fill="#43A047"/>
<path d="M63.8504 30.2667H60.5908C60.4902 28.0064 59.6494 26.9258 56.7714 26.9258H52.3168C49.6552 26.9258 48.8248 27.7818 48.7324 30.2667H45.8466C45.0344 30.2667 44.2554 30.5893 43.6811 31.1637C43.1067 31.738 42.7841 32.5169 42.7841 33.3292V33.5148C42.7841 35.0479 43.9118 36.3145 45.3826 36.5387V47.8528C45.3826 50.9291 46.3006 51.4258 48.9759 51.4258H60.1123C62.9966 51.4258 63.9432 50.6911 63.9432 47.8528V36.5725C65.591 36.5231 66.9129 35.1745 66.9129 33.5148V33.3292C66.9129 32.5169 66.5902 31.738 66.0159 31.1637C65.4416 30.5893 64.6626 30.2667 63.8504 30.2667ZM52.3168 28.4106H56.7714C58.548 28.4106 59.035 28.6003 59.1063 30.2667H50.2124C50.2391 28.6538 50.4697 28.4106 52.3168 28.4106ZM60.1123 49.9409H48.9759C46.818 49.9409 46.8674 49.8039 46.8674 47.8528V36.5773H62.4583V47.8528C62.4583 49.8823 62.1977 49.9409 60.1123 49.9409ZM65.428 33.5148C65.428 33.9332 65.2618 34.3345 64.9659 34.6303C64.6701 34.9262 64.2688 35.0924 63.8504 35.0924H45.8466C45.4282 35.0924 45.0269 34.9262 44.731 34.6303C44.4351 34.3345 44.2689 33.9332 44.2689 33.5148V33.3292C44.2689 32.9108 44.4351 32.5095 44.731 32.2136C45.0269 31.9177 45.4282 31.7515 45.8466 31.7515H63.8504C64.2688 31.7515 64.6701 31.9177 64.9659 32.2136C65.2618 32.5095 65.428 32.9108 65.428 33.3292V33.5148Z" fill="#43A047"/>
<path d="M5.54667 132.28C7.19111 132.28 8.44444 131.822 9.30667 130.907C10.1778 129.982 10.6133 128.64 10.6133 126.88C10.6133 125.796 10.3067 124.876 9.69333 124.12C9.08889 123.364 8.13778 122.711 6.84 122.16C6.71556 122.08 6.52889 121.978 6.28 121.853C6.04 121.72 5.84889 121.609 5.70667 121.52C5.57333 121.431 5.42667 121.324 5.26667 121.2C5.10667 121.076 4.99111 120.938 4.92 120.787C4.84889 120.636 4.81333 120.467 4.81333 120.28C4.81333 119.569 5.38222 119.213 6.52 119.213C6.99111 119.213 7.48444 119.316 8 119.52C8.52444 119.716 8.96 120.018 9.30667 120.427L9.97333 117.853C9.94667 117.809 9.90222 117.751 9.84 117.68C9.77778 117.6 9.62667 117.467 9.38667 117.28C9.15556 117.084 8.89778 116.916 8.61333 116.773C8.32889 116.631 7.93333 116.502 7.42667 116.387C6.92889 116.262 6.39556 116.2 5.82667 116.2C2.24444 116.2 0.453333 117.787 0.453333 120.96C0.453333 121.547 0.542222 122.098 0.72 122.613C0.897778 123.12 1.10222 123.538 1.33333 123.867C1.56444 124.187 1.86222 124.498 2.22667 124.8C2.6 125.093 2.89778 125.307 3.12 125.44C3.34222 125.564 3.61333 125.707 3.93333 125.867C4.81333 126.293 5.43111 126.658 5.78667 126.96C6.15111 127.262 6.33333 127.627 6.33333 128.053C6.33333 128.453 6.17333 128.729 5.85333 128.88C5.54222 129.031 5.03111 129.107 4.32 129.107C3.60889 129.107 2.94667 128.929 2.33333 128.573C1.72 128.209 1.23111 127.782 0.866667 127.293L0.533333 130.533C0.702222 130.711 0.911111 130.889 1.16 131.067C1.41778 131.244 1.74667 131.431 2.14667 131.627C2.54667 131.822 3.04 131.978 3.62667 132.093C4.22222 132.218 4.86222 132.28 5.54667 132.28ZM18.6928 130.227L19.1061 132H22.7995V120.667H17.7195V122.2L18.4395 122.68V128.947C18.4128 128.964 18.3728 128.996 18.3195 129.04C18.275 129.076 18.2395 129.102 18.2128 129.12C18.195 129.138 18.1639 129.164 18.1195 129.2C18.075 129.227 18.0395 129.249 18.0128 129.267C17.9861 129.284 17.9506 129.307 17.9061 129.333C17.8617 129.351 17.8217 129.364 17.7861 129.373C17.7595 129.382 17.7239 129.396 17.6795 129.413C17.635 129.422 17.5906 129.431 17.5461 129.44C17.5017 129.44 17.4528 129.44 17.3995 129.44C17.0261 129.44 16.7684 129.347 16.6261 129.16C16.4839 128.964 16.4173 128.667 16.4261 128.267V120.667H11.5861V122.2L12.0528 122.68V127.427C12.0528 129.169 12.3195 130.413 12.8528 131.16C13.395 131.907 14.2928 132.28 15.5461 132.28C15.9461 132.28 16.3417 132.191 16.7328 132.013C17.1239 131.844 17.4528 131.64 17.7195 131.4C17.9861 131.151 18.1995 130.924 18.3595 130.72C18.5284 130.516 18.6395 130.351 18.6928 130.227ZM28.1404 132.28C31.5804 132.28 33.3004 130.911 33.3004 128.173C33.3004 127.231 33.0649 126.444 32.5937 125.813C32.1226 125.182 31.3671 124.693 30.3271 124.347C30.1404 124.293 29.9182 124.236 29.6604 124.173C29.4026 124.102 29.2026 124.049 29.0604 124.013C28.9182 123.969 28.7715 123.916 28.6204 123.853C28.4782 123.782 28.376 123.702 28.3138 123.613C28.2515 123.516 28.2204 123.396 28.2204 123.253C28.2204 122.756 28.6426 122.507 29.4871 122.507C30.5182 122.507 31.3271 122.796 31.9138 123.373L32.5004 121.467C32.5004 121.467 32.4204 121.391 32.2604 121.24C31.5404 120.68 30.4204 120.4 28.9004 120.4C28.0115 120.4 27.2071 120.529 26.4871 120.787C25.7671 121.044 25.176 121.462 24.7137 122.04C24.2515 122.609 24.0204 123.293 24.0204 124.093C24.0204 126.049 25.056 127.338 27.1271 127.96C27.9271 128.2 28.5049 128.413 28.8604 128.6C29.216 128.778 29.3937 128.982 29.3937 129.213C29.3937 129.453 29.2915 129.64 29.0871 129.773C28.8915 129.907 28.5271 129.973 27.9937 129.973C27.256 129.973 26.5315 129.867 25.8204 129.653C25.1182 129.44 24.616 129.187 24.3137 128.893L23.9671 131.04C24.2071 131.307 24.7537 131.582 25.6071 131.867C26.4604 132.142 27.3049 132.28 28.1404 132.28ZM34.4384 132H38.7318V120.667H36.5051L33.6384 121.453V122.88L34.4384 123.373V132ZM36.3718 119.44H36.8784L39.1584 117.24V116.773L36.8784 114.587H36.3718L34.1851 116.773V117.24L36.3718 119.44ZM43.6913 132.28C44.2957 132.28 44.8424 132.213 45.3312 132.08C45.829 131.947 46.1846 131.818 46.3979 131.693C46.6113 131.56 46.7846 131.427 46.9179 131.293V129.48C46.8201 129.56 46.6957 129.622 46.5446 129.667C46.3935 129.711 46.2246 129.733 46.0379 129.733C45.6112 129.733 45.2957 129.618 45.0912 129.387C44.8868 129.156 44.7846 128.684 44.7846 127.973V123.013H47.0112V120.667H44.8246V117.56H42.4779L41.1179 120.667L39.5446 121.16V123.013H40.4646V127.547C40.4646 129.262 40.7001 130.48 41.1713 131.2C41.6513 131.92 42.4913 132.28 43.6913 132.28ZM50.7751 132H54.9751L58.3751 120.667H54.7751L53.7884 124.76L53.1084 128.293L52.4951 124.76L51.6418 120.667H46.8551L50.7751 132ZM64.8859 130.813L65.3126 132H68.9659L68.5926 130.96V125.533C68.5926 124.556 68.517 123.751 68.3659 123.12C68.2148 122.48 67.957 121.956 67.5926 121.547C67.237 121.129 66.7704 120.836 66.1926 120.667C65.6148 120.489 64.8815 120.4 63.9926 120.4C62.9882 120.4 62.0015 120.551 61.0326 120.853C60.0637 121.147 59.277 121.489 58.6726 121.88L59.5259 123.693C59.8637 123.516 60.3304 123.364 60.9259 123.24C61.5215 123.107 62.0948 123.04 62.6459 123.04C63.2859 123.04 63.7482 123.151 64.0326 123.373C64.3259 123.596 64.4726 123.978 64.4726 124.52V124.76C64.1704 124.76 63.8548 124.773 63.5259 124.8C63.197 124.827 62.8237 124.88 62.4059 124.96C61.9882 125.04 61.5882 125.142 61.2059 125.267C60.8326 125.382 60.4593 125.547 60.0859 125.76C59.7126 125.964 59.3926 126.2 59.1259 126.467C58.8593 126.733 58.6415 127.062 58.4726 127.453C58.3037 127.836 58.2193 128.258 58.2193 128.72C58.2193 131.093 59.4193 132.28 61.8193 132.28C62.1748 132.28 62.5215 132.227 62.8593 132.12C63.197 132.022 63.4815 131.902 63.7126 131.76C63.9526 131.618 64.1615 131.476 64.3393 131.333C64.5259 131.191 64.6637 131.067 64.7526 130.96L64.8859 130.813ZM63.8326 129.933C63.077 129.933 62.6993 129.378 62.6993 128.267C62.6993 127.644 62.8593 127.187 63.1793 126.893C63.4993 126.591 63.9304 126.44 64.4726 126.44V129.64C64.4726 129.64 64.4459 129.667 64.3926 129.72C64.3393 129.764 64.2593 129.813 64.1526 129.867C64.0548 129.911 63.9482 129.933 63.8326 129.933ZM74.6045 132V125.907C74.8623 125.427 75.4445 125.187 76.3511 125.187C76.9823 125.187 77.3911 125.271 77.5778 125.44L78.0311 120.693C77.7911 120.613 77.56 120.573 77.3378 120.573C75.3645 120.573 74.1956 121.662 73.8311 123.84L73.4445 120.667H72.3645L69.4978 121.373V122.88L70.2978 123.373V132H74.6045ZM85.5802 132H90.7802L87.2069 125.907L90.7002 120.667H85.7002L83.5135 126.547L85.5802 132ZM78.9002 132H83.2469V114.533H82.3802L78.1002 115.2V116.44L78.9002 116.92V132ZM96.6344 130.68C95.8166 130.68 95.4077 129.84 95.4077 128.16V123.827C95.4077 123.258 95.5144 122.818 95.7277 122.507C95.941 122.196 96.2388 122.04 96.621 122.04C97.4388 122.04 97.8477 122.907 97.8477 124.64V128.853C97.8477 129.422 97.741 129.871 97.5277 130.2C97.3233 130.52 97.0255 130.68 96.6344 130.68ZM96.5277 132.28C98.6344 132.28 100.177 131.791 101.154 130.813C102.141 129.836 102.634 128.324 102.634 126.28C102.634 124.307 102.168 122.836 101.234 121.867C100.31 120.889 98.8033 120.4 96.7144 120.4C94.5722 120.4 93.0255 120.911 92.0744 121.933C91.1233 122.947 90.6477 124.458 90.6477 126.467C90.6477 128.493 91.1188 129.969 92.061 130.893C93.0033 131.818 94.4922 132.28 96.5277 132.28ZM108.394 132V124.227C108.411 124.209 108.442 124.182 108.487 124.147C108.54 124.102 108.576 124.071 108.594 124.053C108.62 124.036 108.656 124.009 108.7 123.973C108.754 123.929 108.794 123.898 108.82 123.88C108.847 123.862 108.882 123.84 108.927 123.813C108.971 123.778 109.011 123.756 109.047 123.747C109.082 123.729 109.122 123.711 109.167 123.693C109.22 123.667 109.265 123.649 109.3 123.64C109.345 123.631 109.389 123.622 109.434 123.613C109.487 123.604 109.54 123.6 109.594 123.6C110.331 123.6 110.687 124.018 110.66 124.853V132H115.06V125.627C115.06 125.129 115.047 124.667 115.02 124.24C115.465 123.813 115.816 123.6 116.074 123.6C116.456 123.6 116.74 123.711 116.927 123.933C117.114 124.156 117.207 124.462 117.207 124.853V132H121.54V125.24C121.54 123.978 121.434 123 121.22 122.307C121.007 121.613 120.665 121.124 120.194 120.84C119.731 120.547 119.082 120.4 118.247 120.4C117.491 120.4 116.798 120.631 116.167 121.093C115.545 121.547 115.082 122.036 114.78 122.56C114.585 121.796 114.251 121.244 113.78 120.907C113.309 120.569 112.629 120.4 111.74 120.4C111.394 120.4 111.042 120.471 110.687 120.613C110.34 120.747 110.042 120.898 109.794 121.067C109.554 121.236 109.318 121.431 109.087 121.653C108.856 121.876 108.696 122.04 108.607 122.147C108.527 122.244 108.465 122.324 108.42 122.387V120.667H106.154L103.287 121.453V122.88L104.087 123.373V132H108.394ZM125.787 132.253H126.294L128.574 130.053V129.587L126.294 127.4H125.787L123.601 129.587V130.053L125.787 132.253ZM125.041 126.187H127.081C127.099 125.022 127.214 123.96 127.427 123C127.65 122.04 128.023 120.849 128.547 119.427C128.663 119.062 128.721 118.662 128.721 118.227C128.721 117.409 128.507 116.769 128.081 116.307C127.654 115.836 126.983 115.6 126.067 115.6C125.196 115.6 124.53 115.818 124.067 116.253C123.614 116.68 123.387 117.32 123.387 118.173C123.387 118.618 123.45 119.036 123.574 119.427C124.099 120.849 124.468 122.04 124.681 123C124.903 123.96 125.023 125.022 125.041 126.187Z" fill="#46A147"/>
<defs>
<linearGradient id="paint0_linear" x1="108.818" y1="87.803" x2="19" y2="0" gradientUnits="userSpaceOnUse">
<stop stop-color="#43A047"/>
<stop offset="1" stop-color="#8BC34A"/>
</linearGradient>
<linearGradient id="paint1_linear" x1="66.4303" y1="19.5758" x2="66.4303" y2="76" gradientUnits="userSpaceOnUse">
<stop offset="0.494792" stop-color="white"/>
</linearGradient>
</defs>
</svg>
